<mxfile host="Electron" modified="2024-05-05T21:20:10.256Z" agent="Mozilla/5.0 (Windows NT 10.0; Win64; x64) AppleWebKit/537.36 (KHTML, like Gecko) draw.io/24.2.5 Chrome/120.0.6099.109 Electron/28.1.0 Safari/537.36" etag="NlcTmI_DCN2O4gkJqG0O" version="24.2.5" type="device">
  <diagram name="Page-1" id="74e2e168-ea6b-b213-b513-2b3c1d86103e">
    <mxGraphModel dx="788" dy="1115" grid="1" gridSize="10" guides="1" tooltips="1" connect="1" arrows="1" fold="1" page="1" pageScale="1" pageWidth="827" pageHeight="1169" background="none" math="0" shadow="0">
      <root>
        <mxCell id="0" />
        <mxCell id="1" parent="0" />
        <mxCell id="mIrJNBfiUZeCwhCK8YdG-1" value="Schedul" style="swimlane;html=1;childLayout=stackLayout;startSize=20;rounded=0;shadow=0;labelBackgroundColor=none;strokeWidth=1;fontFamily=Verdana;fontSize=8;align=center;" parent="1" vertex="1">
          <mxGeometry x="850" y="220" width="1120" height="790" as="geometry" />
        </mxCell>
        <mxCell id="mIrJNBfiUZeCwhCK8YdG-2" value="Main" style="swimlane;html=1;startSize=20;" parent="mIrJNBfiUZeCwhCK8YdG-1" vertex="1">
          <mxGeometry y="20" width="280" height="770" as="geometry" />
        </mxCell>
        <mxCell id="mIrJNBfiUZeCwhCK8YdG-50" value="" style="edgeStyle=orthogonalEdgeStyle;rounded=0;orthogonalLoop=1;jettySize=auto;html=1;" parent="mIrJNBfiUZeCwhCK8YdG-2" source="mIrJNBfiUZeCwhCK8YdG-47" target="mIrJNBfiUZeCwhCK8YdG-48" edge="1">
          <mxGeometry relative="1" as="geometry" />
        </mxCell>
        <mxCell id="mIrJNBfiUZeCwhCK8YdG-47" value="Init" style="rounded=1;whiteSpace=wrap;html=1;shadow=0;labelBackgroundColor=none;strokeWidth=1;fontFamily=Verdana;fontSize=8;align=center;" parent="mIrJNBfiUZeCwhCK8YdG-2" vertex="1">
          <mxGeometry x="100" y="70" width="100" height="60" as="geometry" />
        </mxCell>
        <mxCell id="mIrJNBfiUZeCwhCK8YdG-48" value="Idle" style="rounded=1;whiteSpace=wrap;html=1;shadow=0;labelBackgroundColor=none;strokeWidth=1;fontFamily=Verdana;fontSize=8;align=center;" parent="mIrJNBfiUZeCwhCK8YdG-2" vertex="1">
          <mxGeometry x="100" y="150" width="100" height="60" as="geometry" />
        </mxCell>
        <mxCell id="mIrJNBfiUZeCwhCK8YdG-49" value="" style="curved=1;endArrow=classic;html=1;rounded=1;labelBackgroundColor=none;strokeColor=default;strokeWidth=1;fontFamily=Verdana;fontSize=8;fontColor=default;startSize=5;endSize=5;shape=connector;" parent="mIrJNBfiUZeCwhCK8YdG-2" edge="1">
          <mxGeometry width="50" height="50" relative="1" as="geometry">
            <mxPoint x="200" y="180" as="sourcePoint" />
            <mxPoint x="200" y="180" as="targetPoint" />
            <Array as="points">
              <mxPoint x="210" y="190" />
              <mxPoint x="220" y="180" />
              <mxPoint x="210" y="170" />
            </Array>
          </mxGeometry>
        </mxCell>
        <mxCell id="mIrJNBfiUZeCwhCK8YdG-21" value="Alle x ms" style="swimlane;html=1;startSize=20;" parent="mIrJNBfiUZeCwhCK8YdG-1" vertex="1">
          <mxGeometry x="280" y="20" width="280" height="770" as="geometry" />
        </mxCell>
        <mxCell id="mIrJNBfiUZeCwhCK8YdG-54" value="" style="edgeStyle=orthogonalEdgeStyle;rounded=0;orthogonalLoop=1;jettySize=auto;html=1;" parent="mIrJNBfiUZeCwhCK8YdG-21" source="mIrJNBfiUZeCwhCK8YdG-51" target="mIrJNBfiUZeCwhCK8YdG-52" edge="1">
          <mxGeometry relative="1" as="geometry" />
        </mxCell>
        <mxCell id="mIrJNBfiUZeCwhCK8YdG-51" value="Lock-In Daten&lt;br&gt;Freq 1: E1, E2, E3" style="rounded=1;whiteSpace=wrap;html=1;shadow=0;labelBackgroundColor=none;strokeWidth=1;fontFamily=Verdana;fontSize=8;align=center;" parent="mIrJNBfiUZeCwhCK8YdG-21" vertex="1">
          <mxGeometry x="91" y="70" width="100" height="60" as="geometry" />
        </mxCell>
        <mxCell id="mIrJNBfiUZeCwhCK8YdG-55" value="" style="edgeStyle=orthogonalEdgeStyle;rounded=0;orthogonalLoop=1;jettySize=auto;html=1;" parent="mIrJNBfiUZeCwhCK8YdG-21" source="mIrJNBfiUZeCwhCK8YdG-52" target="mIrJNBfiUZeCwhCK8YdG-53" edge="1">
          <mxGeometry relative="1" as="geometry" />
        </mxCell>
        <mxCell id="mIrJNBfiUZeCwhCK8YdG-52" value="Lock-In Daten&lt;br&gt;Freq 2: E1, E2, E3" style="rounded=1;whiteSpace=wrap;html=1;shadow=0;labelBackgroundColor=none;strokeWidth=1;fontFamily=Verdana;fontSize=8;align=center;" parent="mIrJNBfiUZeCwhCK8YdG-21" vertex="1">
          <mxGeometry x="91" y="150" width="100" height="60" as="geometry" />
        </mxCell>
        <mxCell id="mIrJNBfiUZeCwhCK8YdG-53" value="Lock-In Daten&lt;br&gt;Freq 3: E1, E2, E3" style="rounded=1;whiteSpace=wrap;html=1;shadow=0;labelBackgroundColor=none;strokeWidth=1;fontFamily=Verdana;fontSize=8;align=center;" parent="mIrJNBfiUZeCwhCK8YdG-21" vertex="1">
          <mxGeometry x="91" y="230" width="100" height="60" as="geometry" />
        </mxCell>
        <mxCell id="mIrJNBfiUZeCwhCK8YdG-46" value="Alle x ms" style="swimlane;html=1;startSize=20;" parent="mIrJNBfiUZeCwhCK8YdG-1" vertex="1">
          <mxGeometry x="560" y="20" width="280" height="770" as="geometry" />
        </mxCell>
        <mxCell id="mIrJNBfiUZeCwhCK8YdG-65" value="" style="edgeStyle=orthogonalEdgeStyle;rounded=0;orthogonalLoop=1;jettySize=auto;html=1;" parent="mIrJNBfiUZeCwhCK8YdG-46" source="mIrJNBfiUZeCwhCK8YdG-58" target="mIrJNBfiUZeCwhCK8YdG-59" edge="1">
          <mxGeometry relative="1" as="geometry" />
        </mxCell>
        <mxCell id="mIrJNBfiUZeCwhCK8YdG-58" value="Lock-In + ADC-Daten&lt;br&gt;Freq 1: E1, E2, E3" style="rounded=1;whiteSpace=wrap;html=1;shadow=0;labelBackgroundColor=none;strokeWidth=1;fontFamily=Verdana;fontSize=8;align=center;" parent="mIrJNBfiUZeCwhCK8YdG-46" vertex="1">
          <mxGeometry x="100" y="70" width="100" height="60" as="geometry" />
        </mxCell>
        <mxCell id="mIrJNBfiUZeCwhCK8YdG-66" value="" style="edgeStyle=orthogonalEdgeStyle;rounded=0;orthogonalLoop=1;jettySize=auto;html=1;" parent="mIrJNBfiUZeCwhCK8YdG-46" source="mIrJNBfiUZeCwhCK8YdG-59" target="mIrJNBfiUZeCwhCK8YdG-60" edge="1">
          <mxGeometry relative="1" as="geometry" />
        </mxCell>
        <mxCell id="mIrJNBfiUZeCwhCK8YdG-59" value="Lock-In + ADC-Daten&lt;br style=&quot;border-color: var(--border-color);&quot;&gt;Freq 1: SinGen, Eref, E3" style="rounded=1;whiteSpace=wrap;html=1;shadow=0;labelBackgroundColor=none;strokeWidth=1;fontFamily=Verdana;fontSize=8;align=center;" parent="mIrJNBfiUZeCwhCK8YdG-46" vertex="1">
          <mxGeometry x="100" y="150" width="100" height="60" as="geometry" />
        </mxCell>
        <mxCell id="mIrJNBfiUZeCwhCK8YdG-67" value="" style="edgeStyle=orthogonalEdgeStyle;rounded=0;orthogonalLoop=1;jettySize=auto;html=1;" parent="mIrJNBfiUZeCwhCK8YdG-46" source="mIrJNBfiUZeCwhCK8YdG-60" target="mIrJNBfiUZeCwhCK8YdG-61" edge="1">
          <mxGeometry relative="1" as="geometry" />
        </mxCell>
        <mxCell id="mIrJNBfiUZeCwhCK8YdG-60" value="Lock-In Daten&lt;br&gt;Freq 2: E1, E2, E3" style="rounded=1;whiteSpace=wrap;html=1;shadow=0;labelBackgroundColor=none;strokeWidth=1;fontFamily=Verdana;fontSize=8;align=center;" parent="mIrJNBfiUZeCwhCK8YdG-46" vertex="1">
          <mxGeometry x="100" y="230" width="100" height="60" as="geometry" />
        </mxCell>
        <mxCell id="mIrJNBfiUZeCwhCK8YdG-68" value="" style="edgeStyle=orthogonalEdgeStyle;rounded=0;orthogonalLoop=1;jettySize=auto;html=1;" parent="mIrJNBfiUZeCwhCK8YdG-46" source="mIrJNBfiUZeCwhCK8YdG-61" target="mIrJNBfiUZeCwhCK8YdG-62" edge="1">
          <mxGeometry relative="1" as="geometry" />
        </mxCell>
        <mxCell id="mIrJNBfiUZeCwhCK8YdG-61" value="Lock-In + ADC-Daten&lt;br style=&quot;border-color: var(--border-color);&quot;&gt;Freq 2: SinGen, Eref, E3" style="rounded=1;whiteSpace=wrap;html=1;shadow=0;labelBackgroundColor=none;strokeWidth=1;fontFamily=Verdana;fontSize=8;align=center;" parent="mIrJNBfiUZeCwhCK8YdG-46" vertex="1">
          <mxGeometry x="100" y="310" width="100" height="60" as="geometry" />
        </mxCell>
        <mxCell id="mIrJNBfiUZeCwhCK8YdG-69" value="" style="edgeStyle=orthogonalEdgeStyle;rounded=0;orthogonalLoop=1;jettySize=auto;html=1;" parent="mIrJNBfiUZeCwhCK8YdG-46" source="mIrJNBfiUZeCwhCK8YdG-62" target="mIrJNBfiUZeCwhCK8YdG-64" edge="1">
          <mxGeometry relative="1" as="geometry" />
        </mxCell>
        <mxCell id="mIrJNBfiUZeCwhCK8YdG-62" value="Lock-In Daten&lt;br&gt;Freq 3: E1, E2, E3" style="rounded=1;whiteSpace=wrap;html=1;shadow=0;labelBackgroundColor=none;strokeWidth=1;fontFamily=Verdana;fontSize=8;align=center;" parent="mIrJNBfiUZeCwhCK8YdG-46" vertex="1">
          <mxGeometry x="100" y="390" width="100" height="60" as="geometry" />
        </mxCell>
        <mxCell id="mIrJNBfiUZeCwhCK8YdG-76" style="edgeStyle=orthogonalEdgeStyle;rounded=0;orthogonalLoop=1;jettySize=auto;html=1;exitX=0.5;exitY=1;exitDx=0;exitDy=0;entryX=0.5;entryY=0;entryDx=0;entryDy=0;" parent="mIrJNBfiUZeCwhCK8YdG-46" source="mIrJNBfiUZeCwhCK8YdG-64" target="mIrJNBfiUZeCwhCK8YdG-70" edge="1">
          <mxGeometry relative="1" as="geometry" />
        </mxCell>
        <mxCell id="mIrJNBfiUZeCwhCK8YdG-64" value="Lock-In + ADC-Daten&lt;br style=&quot;border-color: var(--border-color);&quot;&gt;Freq 3: SinGen, Eref, E3" style="rounded=1;whiteSpace=wrap;html=1;shadow=0;labelBackgroundColor=none;strokeWidth=1;fontFamily=Verdana;fontSize=8;align=center;" parent="mIrJNBfiUZeCwhCK8YdG-46" vertex="1">
          <mxGeometry x="100" y="470" width="100" height="60" as="geometry" />
        </mxCell>
        <mxCell id="mIrJNBfiUZeCwhCK8YdG-70" value="Temp + Vbat Daten" style="rounded=1;whiteSpace=wrap;html=1;shadow=0;labelBackgroundColor=none;strokeWidth=1;fontFamily=Verdana;fontSize=8;align=center;" parent="mIrJNBfiUZeCwhCK8YdG-46" vertex="1">
          <mxGeometry x="100" y="550" width="100" height="60" as="geometry" />
        </mxCell>
        <mxCell id="Dc8qkJ1HevsXUHFrUQ02-1" value="Alle x ms" style="swimlane;html=1;startSize=20;" vertex="1" parent="mIrJNBfiUZeCwhCK8YdG-1">
          <mxGeometry x="840" y="20" width="280" height="770" as="geometry" />
        </mxCell>
        <mxCell id="Dc8qkJ1HevsXUHFrUQ02-2" value="" style="edgeStyle=orthogonalEdgeStyle;rounded=0;orthogonalLoop=1;jettySize=auto;html=1;" edge="1" parent="Dc8qkJ1HevsXUHFrUQ02-1" source="Dc8qkJ1HevsXUHFrUQ02-3" target="Dc8qkJ1HevsXUHFrUQ02-5">
          <mxGeometry relative="1" as="geometry" />
        </mxCell>
        <mxCell id="Dc8qkJ1HevsXUHFrUQ02-3" value="Lock-In + ADC-Daten&lt;br&gt;Freq 1: E1, E2, E3" style="rounded=1;whiteSpace=wrap;html=1;shadow=0;labelBackgroundColor=none;strokeWidth=1;fontFamily=Verdana;fontSize=8;align=center;" vertex="1" parent="Dc8qkJ1HevsXUHFrUQ02-1">
          <mxGeometry x="90" y="75" width="100" height="60" as="geometry" />
        </mxCell>
        <mxCell id="Dc8qkJ1HevsXUHFrUQ02-4" value="" style="edgeStyle=orthogonalEdgeStyle;rounded=0;orthogonalLoop=1;jettySize=auto;html=1;" edge="1" parent="Dc8qkJ1HevsXUHFrUQ02-1" source="Dc8qkJ1HevsXUHFrUQ02-5" target="Dc8qkJ1HevsXUHFrUQ02-7">
          <mxGeometry relative="1" as="geometry" />
        </mxCell>
        <mxCell id="Dc8qkJ1HevsXUHFrUQ02-5" value="Lock-In + ADC-Daten&lt;br style=&quot;border-color: var(--border-color);&quot;&gt;Freq 1: SinGen, Eref, E3" style="rounded=1;whiteSpace=wrap;html=1;shadow=0;labelBackgroundColor=none;strokeWidth=1;fontFamily=Verdana;fontSize=8;align=center;" vertex="1" parent="Dc8qkJ1HevsXUHFrUQ02-1">
          <mxGeometry x="90" y="155" width="100" height="60" as="geometry" />
        </mxCell>
        <mxCell id="Dc8qkJ1HevsXUHFrUQ02-6" value="" style="edgeStyle=orthogonalEdgeStyle;rounded=0;orthogonalLoop=1;jettySize=auto;html=1;" edge="1" parent="Dc8qkJ1HevsXUHFrUQ02-1" source="Dc8qkJ1HevsXUHFrUQ02-7" target="Dc8qkJ1HevsXUHFrUQ02-9">
          <mxGeometry relative="1" as="geometry" />
        </mxCell>
        <mxCell id="Dc8qkJ1HevsXUHFrUQ02-7" value="Lock-In Daten&lt;br&gt;Freq 2: E1, E2, E3" style="rounded=1;whiteSpace=wrap;html=1;shadow=0;labelBackgroundColor=none;strokeWidth=1;fontFamily=Verdana;fontSize=8;align=center;" vertex="1" parent="Dc8qkJ1HevsXUHFrUQ02-1">
          <mxGeometry x="90" y="235" width="100" height="60" as="geometry" />
        </mxCell>
        <mxCell id="Dc8qkJ1HevsXUHFrUQ02-8" value="" style="edgeStyle=orthogonalEdgeStyle;rounded=0;orthogonalLoop=1;jettySize=auto;html=1;" edge="1" parent="Dc8qkJ1HevsXUHFrUQ02-1" source="Dc8qkJ1HevsXUHFrUQ02-9" target="Dc8qkJ1HevsXUHFrUQ02-11">
          <mxGeometry relative="1" as="geometry" />
        </mxCell>
        <mxCell id="Dc8qkJ1HevsXUHFrUQ02-9" value="Lock-In + ADC-Daten&lt;br style=&quot;border-color: var(--border-color);&quot;&gt;Freq 2: SinGen, Eref, E3" style="rounded=1;whiteSpace=wrap;html=1;shadow=0;labelBackgroundColor=none;strokeWidth=1;fontFamily=Verdana;fontSize=8;align=center;" vertex="1" parent="Dc8qkJ1HevsXUHFrUQ02-1">
          <mxGeometry x="90" y="315" width="100" height="60" as="geometry" />
        </mxCell>
        <mxCell id="Dc8qkJ1HevsXUHFrUQ02-10" value="" style="edgeStyle=orthogonalEdgeStyle;rounded=0;orthogonalLoop=1;jettySize=auto;html=1;" edge="1" parent="Dc8qkJ1HevsXUHFrUQ02-1" source="Dc8qkJ1HevsXUHFrUQ02-11" target="Dc8qkJ1HevsXUHFrUQ02-13">
          <mxGeometry relative="1" as="geometry" />
        </mxCell>
        <mxCell id="Dc8qkJ1HevsXUHFrUQ02-11" value="Lock-In Daten&lt;br&gt;Freq 3: E1, E2, E3" style="rounded=1;whiteSpace=wrap;html=1;shadow=0;labelBackgroundColor=none;strokeWidth=1;fontFamily=Verdana;fontSize=8;align=center;" vertex="1" parent="Dc8qkJ1HevsXUHFrUQ02-1">
          <mxGeometry x="90" y="395" width="100" height="60" as="geometry" />
        </mxCell>
        <mxCell id="Dc8qkJ1HevsXUHFrUQ02-12" style="edgeStyle=orthogonalEdgeStyle;rounded=0;orthogonalLoop=1;jettySize=auto;html=1;exitX=0.5;exitY=1;exitDx=0;exitDy=0;entryX=0.5;entryY=0;entryDx=0;entryDy=0;" edge="1" parent="Dc8qkJ1HevsXUHFrUQ02-1" source="Dc8qkJ1HevsXUHFrUQ02-13" target="Dc8qkJ1HevsXUHFrUQ02-14">
          <mxGeometry relative="1" as="geometry" />
        </mxCell>
        <mxCell id="Dc8qkJ1HevsXUHFrUQ02-13" value="Lock-In + ADC-Daten&lt;br style=&quot;border-color: var(--border-color);&quot;&gt;Freq 3: SinGen, Eref, E3" style="rounded=1;whiteSpace=wrap;html=1;shadow=0;labelBackgroundColor=none;strokeWidth=1;fontFamily=Verdana;fontSize=8;align=center;" vertex="1" parent="Dc8qkJ1HevsXUHFrUQ02-1">
          <mxGeometry x="90" y="475" width="100" height="60" as="geometry" />
        </mxCell>
        <mxCell id="Dc8qkJ1HevsXUHFrUQ02-14" value="Temp + Vbat Daten" style="rounded=1;whiteSpace=wrap;html=1;shadow=0;labelBackgroundColor=none;strokeWidth=1;fontFamily=Verdana;fontSize=8;align=center;" vertex="1" parent="Dc8qkJ1HevsXUHFrUQ02-1">
          <mxGeometry x="90" y="555" width="100" height="60" as="geometry" />
        </mxCell>
      </root>
    </mxGraphModel>
  </diagram>
</mxfile>
